<svg version="1" xmlns="http://www.w3.org/2000/svg" width="516" height="516" viewBox="0 0 387.000000 387.000000"><path d="M174.5 21c-12.1 1.8-14.2 2.2-18 3.1-2.2.5-5.1 1.2-6.5 1.5-11.8 2.5-32.5 11.2-46 19.3-18.8 11.2-38.3 28.5-49.2 43.6-.4.5-1.8 2.3-3.1 4C38.9 109.1 27 135.9 22.1 159c-3.2 15.3-3.3 15.7-3.6 34-.3 18.9.8 29 5.1 46.3C40 305.5 93.4 355.6 162.1 369.1c16 3.2 44 3.4 60.4.5 1.7-.3 4.6-.8 6.5-1.1 17.6-2.9 44.2-13.9 62-25.8 18.7-12.4 30.5-23.8 46.7-45.2 1-1.3 5.3-8 8.4-13 9-14.7 18.8-41.7 21.3-59 .4-2.3.9-5.2 1.2-6.5 1.3-5.6 1.2-36.7-.1-46-4.8-32.8-16.6-60.9-36-85.5-13.9-17.6-28.6-30.5-49-43.2-10.1-6.3-38.9-18-48.8-19.7-1.5-.3-3.5-.7-4.5-1-1.5-.4-3.7-.8-12.7-2.3-5.3-.8-37.8-1-43-.3zM209 99.5c1.4.3 3.9.8 5.5 1.1 5.1.8 15.7 4.5 22 7.7 25.7 12.7 44.4 35.3 51.5 62.2 2.7 10.4 3.4 15.9 3.3 27.5-.3 31-17 61.6-43.3 79.1-22.5 15-50.8 20-77 13.5-10.3-2.6-28.4-10.5-32.5-14.4-1.1-1-3-2.5-4.2-3.3-3.9-2.7-11.7-10.2-15.9-15.4-39.8-49.1-23.1-122.6 34.1-149.5 9.8-4.6 21.3-7.9 30.3-8.7 3.7-.3 6.9-.7 7.1-.9.5-.4 16.1.5 19.1 1.1z"/></svg>