<svg width="124" height="48" viewBox="0 0 124 48" fill="none" xmlns="http://www.w3.org/2000/svg">
<mask id="path-1-inside-1" fill="white">
<path d="M27.7781 30.7782C26.499 32.0573 24.9242 33.0012 23.1931 33.5263C21.462 34.0515 19.6282 34.1415 17.854 33.7886C16.0798 33.4357 14.42 32.6507 13.0216 31.5031C11.6233 30.3555 10.5296 28.8808 9.8373 27.2095C9.14504 25.5383 8.87563 23.7221 9.05294 21.9218C9.23025 20.1216 9.8488 18.3928 10.8538 16.8887C11.8588 15.3846 13.2192 14.1516 14.8146 13.2989C16.41 12.4461 18.191 12 20 12V16.9052C18.9977 16.9052 18.0109 17.1524 17.1269 17.6249C16.243 18.0974 15.4892 18.7806 14.9324 19.6139C14.3755 20.4473 14.0328 21.4051 13.9345 22.4026C13.8363 23.4001 13.9856 24.4064 14.3691 25.3324C14.7527 26.2584 15.3587 27.0755 16.1335 27.7113C16.9083 28.3472 17.8279 28.7821 18.8109 28.9777C19.794 29.1732 20.8101 29.1233 21.7692 28.8323C22.7283 28.5414 23.6009 28.0184 24.3096 27.3097L27.7781 30.7782Z"/>
</mask>
<path d="M27.7781 30.7782L31.3137 34.3137L34.8492 30.7782L31.3137 27.2426L27.7781 30.7782ZM20 12H25V7L20 7L20 12ZM20 16.9052L20 21.9052L25 21.9052V16.9052H20ZM24.3096 27.3097L27.8452 23.7741L24.3096 20.2386L20.7741 23.7741L24.3096 27.3097ZM24.2426 27.2426C23.5449 27.9403 22.6859 28.4552 21.7417 28.7416L24.6445 38.311C27.1624 37.5472 29.4531 36.1743 31.3137 34.3137L24.2426 27.2426ZM21.7417 28.7416C20.7975 29.0281 19.7972 29.0772 18.8294 28.8847L16.8785 38.6926C19.4592 39.2059 22.1266 39.0748 24.6445 38.311L21.7417 28.7416ZM18.8294 28.8847C17.8617 28.6922 16.9563 28.264 16.1936 27.6381L9.84968 35.3682C11.8836 37.0374 14.2979 38.1792 16.8785 38.6926L18.8294 28.8847ZM16.1936 27.6381C15.4309 27.0121 14.8343 26.2077 14.4567 25.2961L5.2179 29.1229C6.22482 31.5539 7.81572 33.6989 9.84968 35.3682L16.1936 27.6381ZM14.4567 25.2961C14.0791 24.3845 13.9321 23.3939 14.0289 22.4119L4.07702 21.4317C3.81911 24.0503 4.21098 26.692 5.2179 29.1229L14.4567 25.2961ZM14.0289 22.4119C14.1256 21.4299 14.463 20.487 15.0112 19.6666L6.69646 14.1109C5.23463 16.2987 4.33492 18.8132 4.07702 21.4317L14.0289 22.4119ZM15.0112 19.6666C15.5593 18.8462 16.3014 18.1736 17.1716 17.7085L12.4576 8.88926C10.1371 10.1296 8.15828 11.9231 6.69646 14.1109L15.0112 19.6666ZM17.1716 17.7085C18.0418 17.2433 19.0133 17 20 17L20 7C17.3688 7 14.7781 7.64891 12.4576 8.88926L17.1716 17.7085ZM15 12V16.9052H25V12H15ZM20 11.9052C18.1754 11.9052 16.379 12.3552 14.7699 13.2153L19.4839 22.0345C19.6427 21.9496 19.8199 21.9052 20 21.9052L20 11.9052ZM14.7699 13.2153C13.1608 14.0754 11.7887 15.319 10.775 16.8361L19.0897 22.3918C19.1897 22.2421 19.3251 22.1194 19.4839 22.0345L14.7699 13.2153ZM10.775 16.8361C9.76134 18.3531 9.13746 20.0968 8.95862 21.9125L18.9105 22.8927C18.9281 22.7135 18.9897 22.5415 19.0897 22.3918L10.775 16.8361ZM8.95862 21.9125C8.77979 23.7283 9.05152 25.5601 9.74974 27.2458L18.9885 23.419C18.9196 23.2526 18.8928 23.0719 18.9105 22.8927L8.95862 21.9125ZM9.74974 27.2458C10.448 28.9314 11.5511 30.4189 12.9615 31.5764L19.3055 23.8463C19.1663 23.7321 19.0574 23.5853 18.9885 23.419L9.74974 27.2458ZM12.9615 31.5764C14.3719 32.7339 16.046 33.5256 17.8355 33.8816L19.7864 24.0737C19.6098 24.0386 19.4446 23.9605 19.3055 23.8463L12.9615 31.5764ZM17.8355 33.8816C19.625 34.2375 21.4746 34.1467 23.2206 33.617L20.3178 24.0476C20.1455 24.0999 19.963 24.1089 19.7864 24.0737L17.8355 33.8816ZM23.2206 33.617C24.9666 33.0874 26.555 32.1353 27.8452 30.8452L20.7741 23.7741C20.6468 23.9014 20.4901 23.9954 20.3178 24.0476L23.2206 33.617ZM20.7741 30.8452L24.2426 34.3137L31.3137 27.2426L27.8452 23.7741L20.7741 30.8452Z" fill="#FFC46B" mask="url(#path-1-inside-1)"/>
<mask id="path-3-inside-2" fill="white">
<path d="M27.7781 30.7782C25.7152 32.8411 22.9174 34 20 34C17.0826 34 14.2847 32.8411 12.2218 30.7782L15.6903 27.3097C16.8333 28.4526 18.3835 29.0948 20 29.0948C21.6164 29.0948 23.1666 28.4526 24.3096 27.3097L27.7781 30.7782Z"/>
</mask>
<path d="M27.7781 30.7782C25.7152 32.8411 22.9174 34 20 34C17.0826 34 14.2847 32.8411 12.2218 30.7782L15.6903 27.3097C16.8333 28.4526 18.3835 29.0948 20 29.0948C21.6164 29.0948 23.1666 28.4526 24.3096 27.3097L27.7781 30.7782Z" stroke="#FF8266" stroke-width="10" mask="url(#path-3-inside-2)"/>
<mask id="path-4-inside-3" fill="white">
<path d="M19.9998 11.9937C22.1754 11.9937 24.3021 12.6388 26.1111 13.8475C27.92 15.0562 29.3299 16.7742 30.1625 18.7842C30.9951 20.7941 31.2129 23.0059 30.7885 25.1397C30.364 27.2735 29.3164 29.2335 27.778 30.7718L24.3095 27.3033C25.1618 26.451 25.7423 25.365 25.9775 24.1827C26.2126 23.0004 26.092 21.775 25.6307 20.6613C25.1694 19.5476 24.3882 18.5958 23.3859 17.9261C22.3836 17.2563 21.2052 16.8989 19.9998 16.8989L19.9998 11.9937Z"/>
</mask>
<path d="M19.9998 11.9937C22.1754 11.9937 24.3021 12.6388 26.1111 13.8475C27.92 15.0562 29.3299 16.7742 30.1625 18.7842C30.9951 20.7941 31.2129 23.0059 30.7885 25.1397C30.364 27.2735 29.3164 29.2335 27.778 30.7718L24.3095 27.3033C25.1618 26.451 25.7423 25.365 25.9775 24.1827C26.2126 23.0004 26.092 21.775 25.6307 20.6613C25.1694 19.5476 24.3882 18.5958 23.3859 17.9261C22.3836 17.2563 21.2052 16.8989 19.9998 16.8989L19.9998 11.9937Z" stroke="#7C99FF" stroke-width="10" mask="url(#path-4-inside-3)"/>
<path d="M50.643 30.003H56.853V33H46.863V14.154H50.643V30.003ZM67.8976 33.243C66.4576 33.243 65.1616 32.928 64.0096 32.298C62.8576 31.65 61.9486 30.741 61.2826 29.571C60.6346 28.401 60.3106 27.051 60.3106 25.521C60.3106 23.991 60.6436 22.641 61.3096 21.471C61.9936 20.301 62.9206 19.401 64.0906 18.771C65.2606 18.123 66.5656 17.799 68.0056 17.799C69.4456 17.799 70.7506 18.123 71.9206 18.771C73.0906 19.401 74.0086 20.301 74.6746 21.471C75.3586 22.641 75.7006 23.991 75.7006 25.521C75.7006 27.051 75.3496 28.401 74.6476 29.571C73.9636 30.741 73.0276 31.65 71.8396 32.298C70.6696 32.928 69.3556 33.243 67.8976 33.243ZM67.8976 29.949C68.5816 29.949 69.2206 29.787 69.8146 29.463C70.4266 29.121 70.9126 28.617 71.2726 27.951C71.6326 27.285 71.8126 26.475 71.8126 25.521C71.8126 24.099 71.4346 23.01 70.6786 22.254C69.9406 21.48 69.0316 21.093 67.9516 21.093C66.8716 21.093 65.9626 21.48 65.2246 22.254C64.5046 23.01 64.1446 24.099 64.1446 25.521C64.1446 26.943 64.4956 28.041 65.1976 28.815C65.9176 29.571 66.8176 29.949 67.8976 29.949ZM87.1154 33.243C85.6754 33.243 84.3794 32.928 83.2274 32.298C82.0754 31.65 81.1664 30.741 80.5004 29.571C79.8524 28.401 79.5284 27.051 79.5284 25.521C79.5284 23.991 79.8614 22.641 80.5274 21.471C81.2114 20.301 82.1384 19.401 83.3084 18.771C84.4784 18.123 85.7834 17.799 87.2234 17.799C88.6634 17.799 89.9684 18.123 91.1384 18.771C92.3084 19.401 93.2264 20.301 93.8924 21.471C94.5764 22.641 94.9184 23.991 94.9184 25.521C94.9184 27.051 94.5674 28.401 93.8654 29.571C93.1814 30.741 92.2454 31.65 91.0574 32.298C89.8874 32.928 88.5734 33.243 87.1154 33.243ZM87.1154 29.949C87.7994 29.949 88.4384 29.787 89.0324 29.463C89.6444 29.121 90.1304 28.617 90.4904 27.951C90.8504 27.285 91.0304 26.475 91.0304 25.521C91.0304 24.099 90.6524 23.01 89.8964 22.254C89.1584 21.48 88.2494 21.093 87.1694 21.093C86.0894 21.093 85.1804 21.48 84.4424 22.254C83.7224 23.01 83.3624 24.099 83.3624 25.521C83.3624 26.943 83.7134 28.041 84.4154 28.815C85.1354 29.571 86.0354 29.949 87.1154 29.949ZM103.471 20.202C103.957 19.518 104.623 18.951 105.469 18.501C106.333 18.033 107.314 17.799 108.412 17.799C109.69 17.799 110.842 18.114 111.868 18.744C112.912 19.374 113.731 20.274 114.325 21.444C114.937 22.596 115.243 23.937 115.243 25.467C115.243 26.997 114.937 28.356 114.325 29.544C113.731 30.714 112.912 31.623 111.868 32.271C110.842 32.919 109.69 33.243 108.412 33.243C107.314 33.243 106.342 33.018 105.496 32.568C104.668 32.118 103.993 31.551 103.471 30.867V40.128H99.6911V18.042H103.471V20.202ZM111.382 25.467C111.382 24.567 111.193 23.793 110.815 23.145C110.455 22.479 109.969 21.975 109.357 21.633C108.763 21.291 108.115 21.12 107.413 21.12C106.729 21.12 106.081 21.3 105.469 21.66C104.875 22.002 104.389 22.506 104.011 23.172C103.651 23.838 103.471 24.621 103.471 25.521C103.471 26.421 103.651 27.204 104.011 27.87C104.389 28.536 104.875 29.049 105.469 29.409C106.081 29.751 106.729 29.922 107.413 29.922C108.115 29.922 108.763 29.742 109.357 29.382C109.969 29.022 110.455 28.509 110.815 27.843C111.193 27.177 111.382 26.385 111.382 25.467Z" fill="white"/>
</svg>
