<?xml version="1.0" encoding="UTF-8" standalone="no"?>
<!DOCTYPE svg PUBLIC "-//W3C//DTD SVG 1.1//EN" "http://www.w3.org/Graphics/SVG/1.1/DTD/svg11.dtd">
<svg width="100%" height="100%" viewBox="0 0 560 560" version="1.1" xmlns="http://www.w3.org/2000/svg" xmlns:xlink="http://www.w3.org/1999/xlink" xml:space="preserve" xmlns:serif="http://www.serif.com/" style="fill-rule:evenodd;clip-rule:evenodd;stroke-linejoin:round;stroke-miterlimit:2;">
    <g transform="matrix(4.3833,0,0,4.3833,-790.264,-742.526)">
        <path d="M243.788,173.494C276.851,173.494 303.694,200.337 303.694,233.4C303.694,266.463 276.851,293.307 243.788,293.307C210.725,293.307 183.882,266.463 183.882,233.4C183.882,200.337 210.725,173.494 243.788,173.494ZM243.788,203.447C260.319,203.447 273.741,216.869 273.741,233.4C273.741,249.932 260.319,263.353 243.788,263.353C227.256,263.353 213.835,249.932 213.835,233.4C213.835,216.869 227.256,203.447 243.788,203.447Z" style="fill:white;"/>
    </g>
    <ellipse cx="561.601" cy="559.334" rx="1.813" ry="2.322" style="fill:rgb(235,235,235);"/>
</svg>
